<svg width="351" height="98" viewBox="0 0 351 98" fill="none" xmlns="http://www.w3.org/2000/svg">
<path  d="M12.254 26.437V32.5H22.445V33.532H12.254V97H3.224V33.532H0.515V32.5H3.224V26.437C3.224 17.063 5.245 10.398 9.287 6.442C13.329 2.4 19.865 0.335996 28.895 0.249992V1.28199C22.961 1.36799 18.704 3.38899 16.124 7.34499C13.544 11.215 12.254 17.579 12.254 26.437ZM49.1631 97C41.5951 97 36.8221 95.022 34.8441 91.066C34.4141 90.206 34.1991 89.432 34.1991 88.744V0.378998H43.2291V87.841C43.2291 90.335 43.7021 92.27 44.6481 93.646C45.6801 94.936 46.7121 95.624 47.7441 95.71L49.1631 95.968H53.1621V97H49.1631ZM87.0367 97.516C78.0067 97.516 70.6537 94.936 64.9777 89.776C59.3017 84.616 56.4637 76.661 56.4637 65.911C56.4637 55.161 59.3877 46.819 65.2357 40.885C71.1697 34.951 78.6517 31.984 87.6817 31.984C96.7977 31.984 104.194 34.564 109.87 39.724C115.546 44.884 118.384 52.839 118.384 63.589C118.384 74.339 115.417 82.681 109.483 88.615C103.635 94.549 96.1527 97.516 87.0367 97.516ZM87.9397 33.016C81.4037 33.016 75.9857 35.94 71.6857 41.788C67.3857 47.55 65.2357 55.634 65.2357 66.04C65.2357 76.36 67.2137 84.014 71.1697 89.002C75.1257 93.99 80.3717 96.484 86.9077 96.484C93.4437 96.484 98.8617 93.603 103.162 87.841C107.462 81.993 109.612 73.909 109.612 63.589C109.612 53.183 107.634 45.486 103.678 40.498C99.7217 35.51 94.4757 33.016 87.9397 33.016ZM150.768 38.047V35.338C146.898 36.886 143.372 40.025 140.19 44.755C137.008 49.399 135.331 53.785 135.159 57.913V97H126.129V32.5H135.159V53.011C136.535 48.023 139.158 43.336 143.028 38.95C146.898 34.478 151.284 32.156 156.186 31.984H156.702C158.422 31.984 159.841 32.586 160.959 33.79C162.163 34.908 162.765 36.327 162.765 38.047C162.765 39.767 162.163 41.186 160.959 42.304C159.841 43.422 158.422 43.981 156.702 43.981C154.982 43.981 153.563 43.422 152.445 42.304C151.327 41.186 150.768 39.767 150.768 38.047ZM177.355 65.524C177.355 76.188 179.204 84.014 182.902 89.002C186.686 93.99 191.631 96.484 197.737 96.484C206.337 96.484 213.991 95.194 220.699 92.614L221.086 93.517C214.206 96.183 206.423 97.516 197.737 97.516C189.137 97.516 182.128 94.936 176.71 89.776C171.292 84.616 168.583 76.661 168.583 65.911C168.583 55.161 171.421 46.819 177.097 40.885C182.773 34.951 189.997 31.984 198.769 31.984C205.821 31.984 211.755 34.091 216.571 38.305C221.387 42.519 223.795 48.754 223.795 57.01C223.795 57.44 223.795 57.87 223.795 58.3H177.742C177.484 60.622 177.355 63.03 177.355 65.524ZM215.023 57.268C214.937 49.012 213.346 42.906 210.25 38.95C207.154 34.994 203.155 33.016 198.253 33.016C193.351 33.016 188.965 35.166 185.095 39.466C181.311 43.766 178.903 49.7 177.871 57.268H215.023ZM235.537 33.532V32.5H280.3V33.532L241.342 95.968H272.173C278.107 95.968 281.676 94.248 282.88 90.808L283.654 91.195C283.654 91.539 283.353 92.141 282.751 93.001C282.149 93.775 281.461 94.42 280.687 94.936C278.623 96.312 275.785 97 272.173 97H232.312V95.968L271.27 33.532H235.537ZM346.577 97C340.729 97 336.73 95.882 334.58 93.646C332.602 91.754 331.613 90.12 331.613 88.744V86.035C327.399 93.689 320.648 97.516 311.36 97.516C300.524 97.516 294.375 92.614 292.913 82.81C292.741 81.778 292.655 80.746 292.655 79.714C292.655 78.596 292.827 77.392 293.171 76.102C293.515 74.812 294.504 73.393 296.138 71.845C299.406 68.749 306.587 66.857 317.681 66.169C320.433 65.911 322.97 65.782 325.292 65.782C327.614 65.782 329.721 65.868 331.613 66.04V44.626C331.441 44.54 331.441 44.153 331.613 43.465C331.785 42.691 331.613 41.745 331.097 40.627C330.667 39.423 330.065 38.262 329.291 37.144C328.517 36.026 327.141 35.08 325.163 34.306C323.185 33.446 320.605 33.016 317.423 33.016C314.241 33.016 310.5 33.618 306.2 34.822C301.986 35.94 298.89 37.058 296.912 38.176L296.396 37.273C304.05 33.747 311.833 31.984 319.745 31.984C328.603 31.984 334.451 33.575 337.289 36.757C339.525 39.251 340.643 41.874 340.643 44.626V87.841C340.643 90.335 341.116 92.27 342.062 93.646C343.094 94.936 344.126 95.624 345.158 95.71L346.577 95.968H350.576V97H346.577ZM313.424 96.484C317.982 96.484 322.067 94.936 325.679 91.84C329.377 88.658 331.355 85.605 331.613 82.681V67.072C329.291 66.9 326.926 66.814 324.518 66.814C322.196 66.814 319.874 66.943 317.552 67.201C311.016 67.975 306.759 69.437 304.781 71.587C302.803 73.737 301.814 76.704 301.814 80.488C301.814 81.176 301.857 81.95 301.943 82.81C302.717 91.926 306.544 96.484 313.424 96.484Z" fill="#242424"/>
</svg>
